# xmcd CD database file
#
# Track frame offsets:
#	150
#	23177
#	45710
#	63247
#	84277
#	101177
#	125720
#	146185
#	173402
#	188037
#	201992
#	217795
#	248787
#	264487
#
# Disc length: 3924 seconds
#
# Revision: 0
# Processed by: cddbd v1.5.2PL0 Copyright (c) Steve Scherf et al.
# Submitted via: CDex 1.51
#
DISCID=c50f520e
DTITLE=Various Artist - Jazz Moments-2
DYEAR=1900
DGENRE=Jazz
TTITLE0=I'm old fashioned
TTITLE1=All the things you are
TTITLE2=Don't go to strangers
TTITLE3=Prelude to a kiss
TTITLE4=On green dolphin street
TTITLE5=Ruby, My dear
TTITLE6=I'll be seeing you
TTITLE7=My funny valetine
TTITLE8=Do nothing till you hear from me
TTITLE9=Stardust
TTITLE10=Mean to me
TTITLE11=(I love you for) sentimental reason
TTITLE12=Mack the knife
TTITLE13=Easy living
EXTD=
EXTT0=
EXTT1=
EXTT2=
EXTT3=
EXTT4=
EXTT5=
EXTT6=
EXTT7=
EXTT8=
EXTT9=
EXTT10=
EXTT11=
EXTT12=
EXTT13=
PLAYORDER=
